<?xml version="1.0" encoding="utf-8"?>

<!-- Uploaded to: SVG Repo, www.svgrepo.com, Generator: SVG Repo Mixer Tools -->
<svg width="800px" height="800px" viewBox="0 0 32 32" fill="none" xmlns="http://www.w3.org/2000/svg">
<g clip-path="url(#clip0_901_1512)">
<path d="M8 16H2M9 20H3M7 12H1M26 16H11M25 20H12M27 12H10M10 24H27C28.125 24 28.862 23.038 29 22L31 8H6L4 1H1M13 29C13 27.896 12.104 27 11 27C9.896 27 9 27.896 9 29C9 30.104 9.896 31 11 31C12.104 31 13 30.104 13 29ZM25 29C25 27.896 24.104 27 23 27C21.896 27 21 27.896 21 29C21 30.104 21.896 31 23 31C24.104 31 25 30.104 25 29Z" stroke="#FFBC42" stroke-width="2" stroke-linecap="round" stroke-linejoin="round"/>
</g>
<defs>
<clipPath id="clip0_901_1512">
<rect width="32" height="32" fill="white"/>
</clipPath>
</defs>
</svg>